<?xml version="1.0" encoding="UTF-8" standalone="no"?>
<svg
   id="Calque_2"
   viewBox="0 0 512 334.37828"
   version="1.1"
   sodipodi:docname="Decathlon (2024) stacked.svg"
   width="512"
   height="334.37827"
   inkscape:version="1.1.1 (3bf5ae0d25, 2021-09-20)"
   xmlns:inkscape="http://www.inkscape.org/namespaces/inkscape"
   xmlns:sodipodi="http://sodipodi.sourceforge.net/DTD/sodipodi-0.dtd"
   xmlns="http://www.w3.org/2000/svg"
   xmlns:svg="http://www.w3.org/2000/svg">
  <sodipodi:namedview
     id="namedview2660"
     pagecolor="#ffffff"
     bordercolor="#666666"
     borderopacity="1.0"
     inkscape:pageshadow="2"
     inkscape:pageopacity="0.0"
     inkscape:pagecheckerboard="0"
     showgrid="false"
     inkscape:zoom="1.7267081"
     inkscape:cx="51.832734"
     inkscape:cy="86.001798"
     inkscape:window-width="1366"
     inkscape:window-height="715"
     inkscape:window-x="-8"
     inkscape:window-y="-8"
     inkscape:window-maximized="1"
     inkscape:current-layer="Calque_2" />
  <defs
     id="defs2616">
    <style
       id="style2614">
		.cls-1{fill:#3643ba;}
		.cls-1,
		.cls-2{stroke-width:0px;}
		.cls-2{fill:#1d1d1b;}
	</style>
  </defs>
  <path
     class="cls-1"
     d="M 63.130616,333.30826 H 109.14107 V 318.32812 H 80.785789 V 306.02299 H 105.93103 V 292.11284 H 80.785789 v -12.3051 H 109.14107 V 265.36259 H 63.130616 Z M 415.69907,263.75757 c -20.33021,0 -34.24036,13.91014 -34.24036,35.31036 0,21.40019 13.91015,35.31034 34.24036,35.31034 20.33019,0 34.24033,-13.91015 34.24033,-35.31034 0,-21.40022 -13.37512,-35.31036 -34.24033,-35.31036 z m 0,55.10553 c -10.16512,0 -16.58516,-6.95506 -16.58516,-19.79517 0,-12.84014 6.42004,-19.7952 16.58516,-19.7952 10.1651,0 16.58514,6.95506 16.58514,19.7952 0,12.84011 -6.42004,19.79517 -16.58514,19.79517 z m 79.18075,-53.50051 v 37.45036 l -22.47019,-37.45036 h -18.19019 v 67.94567 h 17.12016 v -39.05538 l 23.54022,39.05538 H 512 v -67.94567 z m -469.199569,0 H 0 v 67.94567 h 25.680251 c 20.330199,0 33.170324,-13.37513 33.170324,-34.24033 0,-20.8652 -12.840125,-33.70534 -33.170324,-33.70534 z m -0.535006,52.96553 h -8.025078 v -38.52038 h 8.025078 c 10.165099,0 16.050157,6.95506 16.050157,19.26019 0,12.3051 -5.885058,19.26019 -16.050157,19.26019 z M 356.84849,265.36259 h -17.65517 v 67.94567 h 43.87041 v -14.98014 h -26.21524 z m -190.99687,38.52037 c -6.42006,10.70011 -13.37513,14.98014 -21.40021,14.98014 -10.7001,0 -17.12017,-7.49007 -17.12017,-20.8652 0,-12.3051 5.88506,-18.72517 14.44514,-18.72517 5.88506,0 10.70011,2.67502 12.30513,11.2351 h 17.65517 c -2.14002,-16.58517 -12.30512,-27.28525 -29.42529,-27.28525 -19.79519,0 -32.63532,13.91012 -32.63532,35.31034 0,21.40021 12.84013,35.31033 34.24034,35.31033 13.91013,0 23.54022,-5.88505 29.96029,-13.91012 h 24.07523 v 12.3051 h 17.65518 v -66.87564 h -24.61025 z m 31.56531,3.21003 h -15.51515 l 15.51515,-25.14524 z M 316.7231,291.04284 h -23.54023 v -25.68025 h -17.65519 v 67.94567 h 17.65519 v -27.28527 h 23.54023 v 27.28527 h 17.65517 V 265.36259 H 316.7231 Z m -97.37096,-11.2351 h 17.12017 v 53.50052 h 17.65517 v -53.50052 h 17.12016 v -14.44515 h -51.8955 z"
     id="path2618" />
  <path
     class="cls-1"
     d="m 324.74816,0 c -93.0909,0 -208.65203,96.300941 -208.65203,176.01672 0,41.1954 31.56531,62.0606 73.29572,62.0606 30.4953,0 67.94567,-11.23511 103.79102,-32.63531 V 46.01045 c -9.6301,16.585162 -54.57054,82.3908 -90.41589,117.70115 -18.19018,18.19018 -33.17032,25.68025 -45.47544,25.68025 -13.91014,0 -20.86521,-9.63009 -20.86521,-23.54023 0,-64.73563 108.60606,-148.196448 180.83176,-148.196448 29.4253,0 48.68549,13.375131 48.68549,38.520377 0,23.54023 -16.05015,52.965521 -42.80041,79.715781 v 49.22048 C 370.22362,147.66144 398.57889,100.04598 398.57889,61.525601 398.04388,20.865204 366.47857,0 324.74816,0 Z"
     id="path2620" />
</svg>
