<?xml version="1.0" encoding="UTF-8"?>
<svg id="Logo" xmlns="http://www.w3.org/2000/svg" version="1.1" viewBox="0 0 218 20">
  <!-- Generator: Adobe Illustrator 29.6.0, SVG Export Plug-In . SVG Version: 2.1.1 Build 207)  -->
  <defs>
    <style>
      .st0 {
        fill-rule: evenodd;
      }

      .st0, .st1 {
        fill: #fce03e;
      }
    </style>
  </defs>
  <path class="st0" d="M127.7,1.6c-.5-.5-1.1-.8-1.6-1.1-.6-.2-1.2-.4-1.9-.4h-23.3v4.9h22.9l-19.9,4.5c-1.1.2-2,.7-2.7,1.6-.6.8-1.1,1.9-1.1,3.1s.2,1.4.5,2.1c.4.7.7,1.3,1.3,1.8.5.5,1.2.8,1.9,1.1.6.2,1.4.4,2.1.4h22.4v-5.2h-21.9l18.9-4.2c1.2-.2,2.1-.8,2.9-1.8.7-.8,1.1-1.9,1.1-3.1s0-1.4-.4-2c-.2-.7-.6-1.3-1.1-1.8h0Z"/>
  <path class="st0" d="M74.2.6c-.7.2-1.3.6-2,1.3s-1.2,1.3-1.4,2c-.4.7-.5,1.5-.5,2.5v6.8c0,.7,0,1.5.2,2.1s.7,1.4,1.2,2,.9,1.1,1.4,1.3c.5.4,2.2,1.2,3.5,1.2h19.7v-5.5h-21.3v-2h21.3v-4.9h-21.3v-2.2h21.3V.2h-19.4c-1.1,0-1.9.1-2.6.4h-.1Z"/>
  <polygon class="st0" points="0 5.2 10.8 5.2 10.8 19.8 15.6 19.8 15.6 5.2 26.3 5.2 26.3 .2 0 .2 0 5.2"/>
  <path class="st0" d="M64.7,1.3c-.7-.6-2-.9-2.8-.9s-2.2.4-2.9.9-1.2,1.8-1.6,2.8l-4.6,11.1-4.2-10.5c-.5-1.2-1.1-2.4-1.9-3.2-.9-.7-2.2-1.3-3.5-1.2-.7,0-1.6.5-2.2.9s-1.1,1.1-1.3,1.8c-.4.7-.5,1.5-.5,2.4v14.4h4.5V5.6l4.2,9.8c.6,1.3,1.3,2.5,2.2,3.3.8.7,1.4,1.2,3.2,1.2s1.1-.2,1.4-.5c.5-.2.8-.6,1.2-.9s.6-.7.8-1.3c.2-.5.5-1.1.8-1.6l4.6-9.9v14.1c-.1,0,4.5,0,4.5,0V6c0-.9-.2-2.2-.5-3.1-.2-.7-.7-1.2-1.2-1.6h-.1Z"/>
  <rect class="st1" x="29.9" y=".2" width="5.3" height="19.6"/>
  <path class="st0" d="M183.4,14.5l-12.6-12.6c-.6-.6-1.2-1.1-1.9-1.3-.6-.4-1.3-.5-2-.5s-1.3.1-1.9.5c-1.9.9-2.8,2.2-2.8,4.1v15.2c-.1,0,4.6,0,4.6,0V5.2l12.6,12.5c1.2,1.2,2.5,1.9,3.9,1.9s1.4-.2,2.1-.6c1.8-.9,2.6-2.5,2.6-4.7V.2h-4.6v14.3h0Z"/>
  <path class="st0" d="M157.2,2.6c-.6-.8-1.3-1.4-2-1.8-.7-.4-1.5-.6-2.5-.6h-13.7c-.6,0-1.2,0-1.8.2-.5,0-.9.2-1.4.5-.5.2-.9.6-1.3.9-.7.6-1.2,1.2-1.6,1.8-.4.6-.5,1.3-.5,2.2v9.4c0,.5.2.9.5,1.3s.5.8.8,1.2c.6.7,1.3,1.2,2,1.5.7.4,1.5.5,2.5.5h14.3c.5,0,1.1,0,1.5-.2.5-.1.9-.4,1.3-.6.5-.2.8-.6,1.3-1.1.6-.6,1.1-1.2,1.3-1.8.2-.6.4-1.3.5-2.1v-7.8c0-.7,0-1.4-.2-1.9-.2-.6-.6-1.2-1.1-1.8h.1ZM153.7,15.1h-16.5V5.2h16.5v9.9Z"/>
  <path class="st0" d="M195.8.6c-.7.2-1.3.6-2,1.3-.7.7-1.2,1.3-1.4,2-.4.7-.5,1.5-.5,2.5v6.8c0,.7,0,1.5.2,2.1s.7,1.4,1.2,2,.9,1.1,1.4,1.3c.5.4,2.2,1.2,3.5,1.2h19.7v-5.5h-21.3v-2h21.3v-4.9h-21.3v-2.2h21.3V.2h-19.4c-1.1,0-1.9.1-2.6.4h-.1Z"/>
</svg>